<svg width="24" height="24" viewBox="0 0 24 24" fill="none" xmlns="http://www.w3.org/2000/svg">
<path d="M11.9999 15.9522L14.1274 13.8247V12.3047H9.87231V13.8247L11.9999 15.9522Z" fill="#298983"/>
<path d="M14.1278 6.52148H9.87256V9.13326H14.1278V6.52148Z" fill="#62D9C7"/>
<path d="M9.48381 9.9102H14.516C14.7307 9.9102 14.9046 9.7362 14.9046 9.5216V6.13273C14.9046 5.91814 14.7307 5.74414 14.516 5.74414H9.48381C9.26917 5.74414 9.09521 5.91814 9.09521 6.13273V9.5216C9.09526 9.73629 9.26921 9.9102 9.48381 9.9102ZM9.8724 6.52133H14.1275V9.13306H9.8724V6.52133Z" fill="black"/>
<path d="M14.1278 0.777344H9.87256V3.38912H14.1278V0.777344Z" fill="#298983"/>
<path d="M9.48381 4.16605H14.516C14.7307 4.16605 14.9046 3.99206 14.9046 3.77746V0.388593C14.9046 0.174 14.7307 0 14.516 0H9.48381C9.26917 0 9.09521 0.174 9.09521 0.388593V3.77746C9.09526 3.99206 9.26921 4.16605 9.48381 4.16605ZM9.8724 0.777139H14.1275V3.38887H9.8724V0.777139Z" fill="black"/>
<path d="M19.6119 15.4561L16.603 12.4473L12.5494 16.5009L15.5582 19.5098L19.6119 15.4561Z" fill="#A5F2E5"/>
<path d="M20.4363 15.1819L16.878 11.6236C16.8051 11.5507 16.7063 11.5098 16.6032 11.5098C16.5001 11.5098 16.4014 11.5507 16.3284 11.6236L14.9046 13.0474V11.916C14.9046 11.7014 14.7307 11.5274 14.516 11.5274H9.48377C9.26913 11.5274 9.09518 11.7014 9.09518 11.916V13.0474L7.6714 11.6236C7.51967 11.4718 7.27367 11.4718 7.12184 11.6236L3.56347 15.1819C3.49063 15.2547 3.44971 15.3536 3.44971 15.4566C3.44971 15.5597 3.49063 15.6585 3.56347 15.7314L5.55345 17.7213C5.70519 17.873 5.95114 17.873 6.10301 17.7213C6.25475 17.5696 6.25475 17.3235 6.10301 17.1718L4.38777 15.4566L7.39657 12.4478L15.0015 20.0528L11.9928 23.0616L8.07199 19.1409C7.92017 18.9891 7.67426 18.9891 7.52243 19.1409C7.3707 19.2926 7.3707 19.5386 7.52243 19.6904L11.718 23.886C11.7909 23.9589 11.8897 23.9998 11.9928 23.9998C11.9952 23.9998 11.9976 23.9994 12 23.9994C12.0024 23.9994 12.0048 23.9998 12.0072 23.9998C12.1102 23.9998 12.209 23.9589 12.282 23.886L20.4365 15.7315C20.5881 15.5797 20.5881 15.3336 20.4363 15.1819ZM15.5582 19.5104L12.5495 16.5016L16.6033 12.4478L19.612 15.4566L15.5582 19.5104ZM14.1274 12.3046V13.8246L11.9999 15.9521L9.87237 13.8245V12.3046H14.1274Z" fill="black"/>
<path d="M8.07207 19.1402L11.9928 23.0609L15.0016 20.0521L7.39675 12.4473L4.38794 15.4561L6.10319 17.1713C6.25492 17.323 6.25492 17.5691 6.10319 17.7208L7.52256 19.1402C7.67434 18.9885 7.92034 18.9885 8.07207 19.1402Z" fill="#62D9C7"/>
</svg>
