<svg width="66" height="48" viewBox="0 0 66 48" fill="none" xmlns="http://www.w3.org/2000/svg">
<path d="M17.1507 10.8496L4 24.0003L17.1507 37.151" stroke="#7743DB" stroke-width="4.69863"/>
<path d="M24.2242 39V10.8082H29.4598V39H24.2242Z" fill="white"/>
<path d="M41.8386 23.7764H55.8942V28.2066H41.8386V23.7764ZM42.2816 39H37.046V10.8082H57.626V15.1981H42.2816V39Z" fill="white"/>
<path d="M60.5296 39.2819C59.6168 39.2819 58.8381 38.9732 58.1937 38.3556C57.5494 37.7112 57.2272 36.9058 57.2272 35.9392C57.2272 34.9189 57.5494 34.1134 58.1937 33.5227C58.8381 32.9052 59.6168 32.5964 60.5296 32.5964C61.4425 32.5964 62.2211 32.9052 62.8655 33.5227C63.5099 34.1134 63.8321 34.9189 63.8321 35.9392C63.8321 36.9058 63.5099 37.7112 62.8655 38.3556C62.2211 38.9732 61.4425 39.2819 60.5296 39.2819Z" fill="#7743DB"/>
</svg>
