<svg width="66" height="48" viewBox="0 0 66 48" fill="none" xmlns="http://www.w3.org/2000/svg">
<path d="M17.1507 10.8496L4 24.0003L17.1507 37.151" stroke="#F05F40" stroke-width="4.69863"/>
<path d="M24.2242 39V10.8082H29.4598V39H24.2242Z" fill="black"/>
<path d="M41.8386 23.7764H55.8942V28.2066H41.8386V23.7764ZM42.2816 39H37.046V10.8082H57.626V15.1981H42.2816V39Z" fill="black"/>
<path d="M60.5299 39.2819C59.617 39.2819 58.8384 38.9732 58.194 38.3556C57.5496 37.7112 57.2274 36.9058 57.2274 35.9392C57.2274 34.9189 57.5496 34.1134 58.194 33.5227C58.8384 32.9052 59.617 32.5964 60.5299 32.5964C61.4428 32.5964 62.2214 32.9052 62.8658 33.5227C63.5102 34.1134 63.8323 34.9189 63.8323 35.9392C63.8323 36.9058 63.5102 37.7112 62.8658 38.3556C62.2214 38.9732 61.4428 39.2819 60.5299 39.2819Z" fill="#F05F40"/>
</svg>
